/* XPM */
static char *dark_oak_sapling1613432677[] = {
/* columns rows colors chars-per-pixel */
"16 16 18 1 ",
"  c None",
". c #4C3214",
"X c #533819",
"o c #563B1B",
"O c #5A3F1E",
"+ c #1E4A10",
"@ c #105210",
"# c #1F6519",
"$ c #317C25",
"% c #604422",
"& c #674A27",
"* c #684C29",
"= c #6A4D29",
"- c #6A4E29",
"; c #725530",
": c #348027",
"> c #419130",
", c #459633",
/* pixels */
"                ",
"  @@      ,     ",
"   ,@ @ @@:@    ",
"   @O >$$@@@    ",
" @@O, #@@ OO@   ",
"  ,##@ @ O.@;   ",
"    @@@@O.@:@:  ",
" @@@:Xo,@@:,:@  ",
"  : ;-;:,:@@@   ",
"    -@;O*.      ",
"    : +o.o      ",
"      &*oO      ",
"      %oo.      ",
"      *-*.      ",
"      *o*.      ",
"      *oo.      "
};
